<svg xmlns="http://www.w3.org/2000/svg" width="14.844" height="17.792" viewBox="0 0 14.844 17.792"><defs><style>.a{fill:#5064cc;}</style></defs><path class="a" d="M91.317,8.57a4.146,4.146,0,0,0,3.03-1.255A4.146,4.146,0,0,0,95.6,4.285a4.147,4.147,0,0,0-1.255-3.03,4.284,4.284,0,0,0-6.06,0,4.146,4.146,0,0,0-1.255,3.03,4.146,4.146,0,0,0,1.256,3.03A4.147,4.147,0,0,0,91.317,8.57Zm0,0" transform="translate(-84.007 0)"/><path class="a" d="M14.808,252.4a10.583,10.583,0,0,0-.144-1.124,8.858,8.858,0,0,0-.277-1.13,5.584,5.584,0,0,0-.465-1.054,3.979,3.979,0,0,0-.7-.913,3.089,3.089,0,0,0-1.007-.632,3.478,3.478,0,0,0-1.285-.233,1.3,1.3,0,0,0-.7.3c-.209.136-.453.294-.726.468a4.157,4.157,0,0,1-.939.414,3.645,3.645,0,0,1-2.3,0,4.147,4.147,0,0,1-.938-.413c-.27-.173-.514-.33-.726-.468a1.3,1.3,0,0,0-.7-.3,3.474,3.474,0,0,0-1.285.233,3.087,3.087,0,0,0-1.007.632,3.979,3.979,0,0,0-.7.913,5.6,5.6,0,0,0-.465,1.054,8.878,8.878,0,0,0-.276,1.13A10.546,10.546,0,0,0,.036,252.4c-.024.34-.036.694-.036,1.051a2.954,2.954,0,0,0,.877,2.235,3.159,3.159,0,0,0,2.261.825h8.567a3.158,3.158,0,0,0,2.261-.825,2.953,2.953,0,0,0,.878-2.235C14.844,253.1,14.831,252.742,14.808,252.4Zm0,0" transform="translate(0 -238.722)"/></svg>